<svg width="143" height="143" viewBox="0 0 143 143" fill="none" xmlns="http://www.w3.org/2000/svg">
<g filter="url(#filter0_d_34_849)">
<circle cx="71.5" cy="67.5" r="47.5" fill="white"/>
</g>
<path d="M97.2499 67C97.2499 69.4228 96.5315 71.7912 95.1854 73.8058C93.8394 75.8203 91.9262 77.3904 89.6878 78.3175C87.4494 79.2447 84.9863 79.4873 82.6101 79.0146C80.2338 78.5419 78.0511 77.3752 76.3379 75.662C76.3129 75.637 76.2887 75.6113 76.2653 75.5849L63.1511 60.7771C61.9234 59.5635 60.3641 58.7402 58.6696 58.4108C56.975 58.0814 55.2209 58.2606 53.628 58.9258C52.035 59.591 50.6744 60.7126 49.7175 62.1493C48.7605 63.586 48.2499 65.2737 48.2499 67C48.2499 68.7263 48.7605 70.414 49.7175 71.8507C50.6744 73.2874 52.035 74.409 53.628 75.0742C55.2209 75.7394 56.975 75.9186 58.6696 75.5892C60.3641 75.2598 61.9234 74.4365 63.1511 73.223L65.0146 71.1188C65.1669 70.9464 65.3516 70.8058 65.5583 70.7049C65.765 70.604 65.9895 70.5448 66.2191 70.5307C66.4487 70.5167 66.6788 70.548 66.8962 70.6229C67.1136 70.6979 67.3142 70.8149 67.4864 70.9674C67.6585 71.1199 67.799 71.3048 67.8996 71.5116C68.0003 71.7184 68.0591 71.9431 68.0729 72.1726C68.0867 72.4022 68.0551 72.6323 67.9799 72.8496C67.9047 73.067 67.7874 73.2674 67.6347 73.4394L65.7345 75.5849C65.7111 75.6113 65.6869 75.637 65.6619 75.662C63.9487 77.3752 61.766 78.5419 59.3897 79.0146C57.0134 79.4873 54.5503 79.2447 52.3119 78.3176C50.0735 77.3904 48.1603 75.8203 46.8143 73.8058C45.4682 71.7913 44.7498 69.4228 44.7498 67C44.7498 64.5772 45.4682 62.2088 46.8143 60.1943C48.1603 58.1797 50.0735 56.6096 52.3119 55.6825C54.5503 54.7553 57.0134 54.5127 59.3897 54.9854C61.766 55.4581 63.9487 56.6248 65.6619 58.338C65.6869 58.363 65.7111 58.3887 65.7345 58.4151L78.8487 73.223C80.0764 74.4365 81.6357 75.2598 83.3302 75.5892C85.0248 75.9186 86.7789 75.7394 88.3718 75.0742C89.9648 74.409 91.3254 73.2874 92.2823 71.8507C93.2393 70.414 93.7499 68.7263 93.7499 67C93.7499 65.2737 93.2393 63.586 92.2823 62.1493C91.3254 60.7126 89.9648 59.591 88.3718 58.9258C86.7789 58.2606 85.0248 58.0814 83.3302 58.4108C81.6357 58.7402 80.0764 59.5635 78.8487 60.7771L76.9852 62.8812C76.6772 63.2279 76.2443 63.4381 75.7815 63.4658C75.3186 63.4935 74.8637 63.3364 74.5166 63.029C74.1695 62.7216 73.9586 62.289 73.9302 61.8262C73.9018 61.3634 74.0582 60.9082 74.3651 60.5607L76.2653 58.4151C76.2887 58.3888 76.3129 58.3631 76.3379 58.338C78.0511 56.6249 80.2338 55.4582 82.6101 54.9855C84.9863 54.5129 87.4494 54.7554 89.6878 55.6826C91.9261 56.6098 93.8393 58.1799 95.1854 60.1943C96.5314 62.2088 97.2499 64.5772 97.2499 67Z" fill="url(#paint0_linear_34_849)"/>
<defs>
<filter id="filter0_d_34_849" x="0" y="0" width="143" height="143" filterUnits="userSpaceOnUse" color-interpolation-filters="sRGB">
<feFlood flood-opacity="0" result="BackgroundImageFix"/>
<feColorMatrix in="SourceAlpha" type="matrix" values="0 0 0 0 0 0 0 0 0 0 0 0 0 0 0 0 0 0 127 0" result="hardAlpha"/>
<feOffset dy="4"/>
<feGaussianBlur stdDeviation="12"/>
<feComposite in2="hardAlpha" operator="out"/>
<feColorMatrix type="matrix" values="0 0 0 0 0.607411 0 0 0 0 0.534009 0 0 0 0 0.680814 0 0 0 0.05 0"/>
<feBlend mode="normal" in2="BackgroundImageFix" result="effect1_dropShadow_34_849"/>
<feBlend mode="normal" in="SourceGraphic" in2="effect1_dropShadow_34_849" result="shape"/>
</filter>
<linearGradient id="paint0_linear_34_849" x1="49.9998" y1="71" x2="91.4998" y2="59.5" gradientUnits="userSpaceOnUse">
<stop stop-color="#5E41CF"/>
<stop offset="0.540191" stop-color="#D5C643"/>
<stop offset="1" stop-color="#47ECB0"/>
</linearGradient>
</defs>
</svg>
