<svg width="72" height="41" viewBox="0 0 72 41" fill="none" xmlns="http://www.w3.org/2000/svg">
<path d="M44.8897 5.46731C51.058 -1.71115 62.1284 -1.83965 68.4617 5.19364C76.5584 14.1853 69.1521 27.4469 58.4631 27.0353C57.7801 28.6673 56.1682 29.814 54.2884 29.814C51.79 29.814 49.7646 27.7886 49.7646 25.2903V22.4845C49.7647 18.8424 53.3441 16.303 56.7613 17.4611L56.924 17.5189L57.3571 17.681C61.2841 19.1502 64.5439 14.3637 61.7384 11.2479C59.0553 8.2682 54.3651 8.32258 51.7519 11.3638L33.9586 32.0713C26.3832 40.8874 12.7931 41.0631 4.99236 32.4458C-2.03901 24.6783 -1.58671 12.7199 5.99337 5.4969C13.596 -1.74754 25.6028 -1.6053 33.0231 5.8355L33.1532 5.9659C34.9173 7.73499 34.9132 10.5993 33.1442 12.3634C31.3751 14.1275 28.5108 14.1234 26.7466 12.3544L26.6168 12.2243C22.6732 8.26974 16.2832 8.18941 12.235 12.0467C8.20212 15.8896 7.96583 22.2492 11.6997 26.374C15.8461 30.9544 23.0699 30.8609 27.0965 26.1748L44.8897 5.46731Z" fill="white"/>
<circle cx="54.6344" cy="36.3713" r="4.62864" fill="white"/>
</svg>
