<svg width="352" height="352" viewBox="0 0 352 352" fill="none" xmlns="http://www.w3.org/2000/svg">
<g clip-path="url(#clip0_3055_3407)">
<path d="M352 0H0V352H352V0Z" fill="white"/>
<path opacity="0.4" d="M85.9376 144.375C89.3751 89.3754 144.375 75.6254 192.5 85.9379C240.625 96.2504 261.25 123.75 292.188 130.625C323.125 137.5 309.375 213.125 264.688 237.188C220 261.25 151.25 261.25 103.125 240.625C68.7501 223.438 72.1876 178.75 85.9376 144.375Z" fill="url(#paint0_linear_3055_3407)"/>
<path d="M176 265.375C225.36 265.375 265.375 225.36 265.375 176C265.375 126.64 225.36 86.625 176 86.625C126.64 86.625 86.625 126.64 86.625 176C86.625 225.36 126.64 265.375 176 265.375Z" stroke="#B8A8FF" stroke-width="1.375" stroke-dasharray="6.19 6.19"/>
<path d="M176 130.636C194.745 143.616 215.599 148.442 232.031 151.016V209.105C232.031 225.491 224.777 239.004 213.889 250.479C203.352 261.584 189.541 270.632 176 278.318C162.459 270.632 148.648 261.584 138.111 250.479C127.223 239.004 119.969 225.491 119.969 209.105V151.016C136.401 148.442 157.255 143.616 176 130.636Z" stroke="url(#paint1_linear_3055_3407)" stroke-width="6.1875" stroke-linejoin="round"/>
<path d="M176 130.625C156.406 144.168 134.062 148.682 116.875 151.09V208.874C116.875 241.979 147.812 263.046 176 278.094V130.625Z" fill="#F8F6FF"/>
<path d="M176 130.625C195.594 144.168 217.938 148.682 235.125 151.09V208.874C235.125 241.979 204.188 263.046 176 278.094V130.625Z" fill="#EEE9FF"/>
<path d="M197.312 175.312H154.688C150.891 175.312 147.812 178.391 147.812 182.188V213.125C147.812 216.922 150.891 220 154.688 220H197.312C201.109 220 204.188 216.922 204.188 213.125V182.188C204.188 178.391 201.109 175.312 197.312 175.312Z" fill="url(#paint2_linear_3055_3407)"/>
<path d="M161.562 175.312V168.781C161.562 164.952 163.084 161.28 165.791 158.572C168.499 155.865 172.171 154.344 176 154.344C179.829 154.344 183.501 155.865 186.209 158.572C188.916 161.28 190.438 164.952 190.438 168.781V175.312" stroke="#6E5AE8" stroke-width="5.5" stroke-linecap="round"/>
<path d="M176 203.156C179.038 203.156 181.5 200.694 181.5 197.656C181.5 194.619 179.038 192.156 176 192.156C172.962 192.156 170.5 194.619 170.5 197.656C170.5 200.694 172.962 203.156 176 203.156Z" fill="#5E48D9"/>
<path d="M178.062 201.094C178.062 199.955 177.139 199.031 176 199.031C174.861 199.031 173.938 199.955 173.938 201.094V206.594C173.938 207.733 174.861 208.656 176 208.656C177.139 208.656 178.062 207.733 178.062 206.594V201.094Z" fill="#5E48D9"/>
<g filter="url(#filter0_d_3055_3407)">
<path d="M227.562 252.656C240.852 252.656 251.625 241.883 251.625 228.594C251.625 215.304 240.852 204.531 227.562 204.531C214.273 204.531 203.5 215.304 203.5 228.594C203.5 241.883 214.273 252.656 227.562 252.656Z" fill="#9785F8"/>
</g>
<path d="M226.875 250.938C240.164 250.938 250.938 240.164 250.938 226.875C250.938 213.586 240.164 202.812 226.875 202.812C213.586 202.812 202.812 213.586 202.812 226.875C202.812 240.164 213.586 250.938 226.875 250.938Z" fill="white"/>
<path d="M216.562 226.875L224.125 234.438L238.562 219.312" stroke="#00C389" stroke-width="4.8125" stroke-linecap="round" stroke-linejoin="round"/>
<path d="M61.875 275H92.8125" stroke="#C9BFFF" stroke-width="1.03125"/>
<path d="M75.625 275V247.5" stroke="#00C389" stroke-width="1.375"/>
<path d="M73.1218 260.086C76.139 258.482 75.5504 251.474 71.807 244.434C68.0636 237.394 62.583 232.987 59.5658 234.591C56.5485 236.196 57.1372 243.203 60.8805 250.244C64.6239 257.284 70.1045 261.691 73.1218 260.086Z" fill="url(#paint3_linear_3055_3407)"/>
<path opacity="0.7" d="M79.5029 263.869C82.5202 265.473 88.0008 261.066 91.7442 254.026C95.4876 246.986 96.0762 239.978 93.0589 238.374C90.0417 236.769 84.5611 241.176 80.8177 248.216C77.0743 255.257 76.4857 262.264 79.5029 263.869Z" fill="url(#paint4_linear_3055_3407)"/>
<path opacity="0.45" d="M74.5218 239.543C76.9499 240.624 80.671 237.564 82.8331 232.708C84.9952 227.852 84.7796 223.038 82.3515 221.957C79.9234 220.876 76.2023 223.937 74.0402 228.793C71.8781 233.649 72.0937 238.462 74.5218 239.543Z" fill="url(#paint5_linear_3055_3407)"/>
<path d="M103.125 79.0625L105.875 86.625L113.438 89.375L105.875 92.125L103.125 99.6875L100.375 92.125L92.8125 89.375L100.375 86.625L103.125 79.0625Z" fill="#7D68F5"/>
<path d="M271.562 89.375C273.461 89.375 275 87.836 275 85.9375C275 84.039 273.461 82.5 271.562 82.5C269.664 82.5 268.125 84.039 268.125 85.9375C268.125 87.836 269.664 89.375 271.562 89.375Z" fill="#7D68F5"/>
<path d="M275 226.188C276.519 226.188 277.75 224.956 277.75 223.438C277.75 221.919 276.519 220.688 275 220.688C273.481 220.688 272.25 221.919 272.25 223.438C272.25 224.956 273.481 226.188 275 226.188Z" fill="#7D68F5"/>
<path d="M58.4375 154.688C60.336 154.688 61.875 153.148 61.875 151.25C61.875 149.352 60.336 147.812 58.4375 147.812C56.539 147.812 55 149.352 55 151.25C55 153.148 56.539 154.688 58.4375 154.688Z" fill="#34D9A7"/>
<path d="M292.188 185.625L294.938 191.812L301.125 194.562L294.938 197.312L292.188 203.5L289.438 197.312L283.25 194.562L289.438 191.812L292.188 185.625Z" fill="#34D9A7"/>
</g>
<defs>
<filter id="filter0_d_3055_3407" x="202.125" y="204.531" width="50.875" height="51.9062" filterUnits="userSpaceOnUse" color-interpolation-filters="sRGB">
<feFlood flood-opacity="0" result="BackgroundImageFix"/>
<feColorMatrix in="SourceAlpha" type="matrix" values="0 0 0 0 0 0 0 0 0 0 0 0 0 0 0 0 0 0 127 0" result="hardAlpha"/>
<feOffset dy="2.40625"/>
<feGaussianBlur stdDeviation="0.6875"/>
<feComposite in2="hardAlpha" operator="out"/>
<feColorMatrix type="matrix" values="0 0 0 0 0 0 0 0 0 0 0 0 0 0 0 0 0 0 0.05 0"/>
<feBlend mode="normal" in2="BackgroundImageFix" result="effect1_dropShadow_3055_3407"/>
<feBlend mode="normal" in="SourceGraphic" in2="effect1_dropShadow_3055_3407" result="shape"/>
</filter>
<linearGradient id="paint0_linear_3055_3407" x1="76.1055" y1="82.7754" x2="241.652" y2="305.625" gradientUnits="userSpaceOnUse">
<stop stop-color="#F6F2FF"/>
<stop offset="1" stop-color="#ECE6FF"/>
</linearGradient>
<linearGradient id="paint1_linear_3055_3407" x1="116.875" y1="126.844" x2="266.389" y2="240.886" gradientUnits="userSpaceOnUse">
<stop stop-color="#C9C2FF"/>
<stop offset="1" stop-color="#8A74F6"/>
</linearGradient>
<linearGradient id="paint2_linear_3055_3407" x1="147.812" y1="175.312" x2="191.32" y2="230.199" gradientUnits="userSpaceOnUse">
<stop stop-color="#C9C2FF"/>
<stop offset="1" stop-color="#8A74F6"/>
</linearGradient>
<linearGradient id="paint3_linear_3055_3407" x1="54.1025" y1="237.496" x2="76.7715" y2="235.592" gradientUnits="userSpaceOnUse">
<stop stop-color="#68F0C6"/>
<stop offset="1" stop-color="#00C389"/>
</linearGradient>
<linearGradient id="paint4_linear_3055_3407" x1="87.5957" y1="235.469" x2="101.851" y2="253.197" gradientUnits="userSpaceOnUse">
<stop stop-color="#68F0C6"/>
<stop offset="1" stop-color="#00C389"/>
</linearGradient>
<linearGradient id="paint5_linear_3055_3407" x1="77.9551" y1="220" x2="88.8918" y2="233.298" gradientUnits="userSpaceOnUse">
<stop stop-color="#68F0C6"/>
<stop offset="1" stop-color="#00C389"/>
</linearGradient>
<clipPath id="clip0_3055_3407">
<rect width="352" height="352" fill="white"/>
</clipPath>
</defs>
</svg>
